<mxfile host="app.diagrams.net" agent="Mozilla/5.0 (Windows NT 10.0; Win64; x64) AppleWebKit/537.36 (KHTML, like Gecko) Chrome/137.0.0.0 Safari/537.36" version="27.1.6">
  <diagram name="Halaman-1" id="sII4yR1-26PbtiYNdZBn">
    <mxGraphModel dx="1500" dy="642" grid="1" gridSize="10" guides="1" tooltips="1" connect="1" arrows="1" fold="1" page="1" pageScale="1" pageWidth="827" pageHeight="1169" math="0" shadow="0">
      <root>
        <mxCell id="0" />
        <mxCell id="1" parent="0" />
        <mxCell id="6OxaUUX_s-rTlsvBRI5T-1" value="user" style="rounded=1;whiteSpace=wrap;html=1;" vertex="1" parent="1">
          <mxGeometry x="200" y="190" width="120" height="60" as="geometry" />
        </mxCell>
        <mxCell id="6OxaUUX_s-rTlsvBRI5T-11" style="rounded=0;orthogonalLoop=1;jettySize=auto;html=1;entryX=0.147;entryY=-0.017;entryDx=0;entryDy=0;entryPerimeter=0;" edge="1" parent="1" source="6OxaUUX_s-rTlsvBRI5T-2" target="6OxaUUX_s-rTlsvBRI5T-1">
          <mxGeometry relative="1" as="geometry">
            <mxPoint x="230" y="200" as="targetPoint" />
          </mxGeometry>
        </mxCell>
        <mxCell id="6OxaUUX_s-rTlsvBRI5T-2" value="id" style="ellipse;whiteSpace=wrap;html=1;" vertex="1" parent="1">
          <mxGeometry x="30" y="140" width="100" height="60" as="geometry" />
        </mxCell>
        <mxCell id="6OxaUUX_s-rTlsvBRI5T-10" style="rounded=0;orthogonalLoop=1;jettySize=auto;html=1;entryX=0.25;entryY=0;entryDx=0;entryDy=0;" edge="1" parent="1" source="6OxaUUX_s-rTlsvBRI5T-3" target="6OxaUUX_s-rTlsvBRI5T-1">
          <mxGeometry relative="1" as="geometry" />
        </mxCell>
        <mxCell id="6OxaUUX_s-rTlsvBRI5T-3" value="name&lt;span style=&quot;color: rgba(0, 0, 0, 0); font-family: monospace; font-size: 0px; text-align: start; text-wrap-mode: nowrap;&quot;&gt;%3CmxGraphModel%3E%3Croot%3E%3CmxCell%20id%3D%220%22%2F%3E%3CmxCell%20id%3D%221%22%20parent%3D%220%22%2F%3E%3CmxCell%20id%3D%222%22%20value%3D%22id%22%20style%3D%22ellipse%3BwhiteSpace%3Dwrap%3Bhtml%3D1%3B%22%20vertex%3D%221%22%20parent%3D%221%22%3E%3CmxGeometry%20x%3D%2270%22%20y%3D%22130%22%20width%3D%22100%22%20height%3D%2260%22%20as%3D%22geometry%22%2F%3E%3C%2FmxCell%3E%3C%2Froot%3E%3C%2FmxGraphModel%3E&lt;/span&gt;" style="ellipse;whiteSpace=wrap;html=1;" vertex="1" parent="1">
          <mxGeometry x="70" y="70" width="100" height="60" as="geometry" />
        </mxCell>
        <mxCell id="6OxaUUX_s-rTlsvBRI5T-9" style="rounded=0;orthogonalLoop=1;jettySize=auto;html=1;entryX=0.5;entryY=0;entryDx=0;entryDy=0;" edge="1" parent="1" source="6OxaUUX_s-rTlsvBRI5T-4" target="6OxaUUX_s-rTlsvBRI5T-1">
          <mxGeometry relative="1" as="geometry" />
        </mxCell>
        <mxCell id="6OxaUUX_s-rTlsvBRI5T-4" value="email" style="ellipse;whiteSpace=wrap;html=1;" vertex="1" parent="1">
          <mxGeometry x="300" y="60" width="100" height="60" as="geometry" />
        </mxCell>
        <mxCell id="6OxaUUX_s-rTlsvBRI5T-5" value="verify_code" style="ellipse;whiteSpace=wrap;html=1;" vertex="1" parent="1">
          <mxGeometry x="190" y="60" width="100" height="60" as="geometry" />
        </mxCell>
        <mxCell id="6OxaUUX_s-rTlsvBRI5T-6" value="is_verify" style="ellipse;whiteSpace=wrap;html=1;" vertex="1" parent="1">
          <mxGeometry x="30" y="220" width="100" height="60" as="geometry" />
        </mxCell>
        <mxCell id="6OxaUUX_s-rTlsvBRI5T-7" value="created_at" style="ellipse;whiteSpace=wrap;html=1;" vertex="1" parent="1">
          <mxGeometry x="20" y="300" width="100" height="60" as="geometry" />
        </mxCell>
        <mxCell id="6OxaUUX_s-rTlsvBRI5T-8" style="rounded=0;orthogonalLoop=1;jettySize=auto;html=1;entryX=0.327;entryY=0.01;entryDx=0;entryDy=0;entryPerimeter=0;" edge="1" parent="1" source="6OxaUUX_s-rTlsvBRI5T-5" target="6OxaUUX_s-rTlsvBRI5T-1">
          <mxGeometry relative="1" as="geometry" />
        </mxCell>
        <mxCell id="6OxaUUX_s-rTlsvBRI5T-12" style="rounded=0;orthogonalLoop=1;jettySize=auto;html=1;entryX=0;entryY=0.623;entryDx=0;entryDy=0;entryPerimeter=0;" edge="1" parent="1" source="6OxaUUX_s-rTlsvBRI5T-6" target="6OxaUUX_s-rTlsvBRI5T-1">
          <mxGeometry relative="1" as="geometry" />
        </mxCell>
        <mxCell id="6OxaUUX_s-rTlsvBRI5T-13" style="rounded=0;orthogonalLoop=1;jettySize=auto;html=1;entryX=0.14;entryY=1.023;entryDx=0;entryDy=0;entryPerimeter=0;" edge="1" parent="1" source="6OxaUUX_s-rTlsvBRI5T-7" target="6OxaUUX_s-rTlsvBRI5T-1">
          <mxGeometry relative="1" as="geometry" />
        </mxCell>
      </root>
    </mxGraphModel>
  </diagram>
</mxfile>
